<?xml version="1.0" encoding="UTF-8"?>
<svg width="266px" height="189px" viewBox="0 0 266 189" version="1.1" xmlns="http://www.w3.org/2000/svg" xmlns:xlink="http://www.w3.org/1999/xlink">
    <!-- Generator: Sketch 53.2 (72643) - https://sketchapp.com -->
    <title>Illustration 1</title>
    <desc>Created with Sketch.</desc>
    <defs>
        <polygon id="path-1" points="253 158 253 160 2 160 2 158 253 158"></polygon>
    </defs>
    <g id="Flow" stroke="none" stroke-width="1" fill="none" fill-rule="evenodd">
        <g id="Landingpage" transform="translate(-1021.000000, -182.000000)">
            <g id="Tab-head" transform="translate(352.000000, 83.000000)">
                <g id="Illustration-1" transform="translate(669.000000, 99.000000)">
                    <g id="Group-2" transform="translate(-0.000000, 0.000000)">
                        <g id="Group-5">
                            <path d="M41.7541,30.4054 L41.7541,19.2184 L41.7541,11.7724 C41.7541,5.2704 47.0251,0.0004 53.5261,0.0004 L227.6941,0.0004 C234.1961,0.0004 239.4671,5.2704 239.4671,11.7724 L239.4671,30.4054 L41.7541,30.4054 Z" id="Fill-1" fill="#6E93AD"></path>
                            <polyline id="Fill-3" fill="#E1E2E2" points="41.8215 172.8185 41.8215 30.4055 239.4675 30.4055 239.4675 171.908501 91.5075 171.2255"></polyline>
                            <polygon id="Fill-18" fill="#07A8DC" points="172 140.118606 182.865599 140.118606 182.865599 133.795697 172 133.795697"></polygon>
                            <polygon id="Fill-20" fill="#07A8DC" points="188.368006 130.489304 199.233605 130.489304 199.233605 115.514938 188.368006 115.514938"></polygon>
                            <polygon id="Fill-21" fill="#07A8DC" points="204.736013 123.740831 215.601611 123.740831 215.601611 108 204.736013 108"></polygon>
                            <polygon id="Fill-22" fill="#005082" points="172 147.815768 182.865599 147.815768 182.865599 140.118606 172 140.118606"></polygon>
                            <polygon id="Fill-23" fill="#005082" points="188.368006 147.815768 199.233605 147.815768 199.233605 130.489865 188.368006 130.489865"></polygon>
                            <polygon id="Fill-24" fill="#005082" points="204.736013 147.815768 215.601611 147.815768 215.601611 123.740831 204.736013 123.740831"></polygon>
                            <path d="M214.840544,63.0728361 C214.669161,62.9459743 214.433083,62.9890595 214.312206,63.1691793 C213.384353,64.5568802 212.500196,65.9745013 211.614337,67.3903272 C210.748908,68.8199164 209.870994,70.2411279 209.025427,71.6832836 C208.1844,73.1296282 207.319538,74.558619 206.499508,76.0181284 C205.667561,77.4698586 204.844694,78.9275728 204.049066,80.4032392 C203.953727,80.5809654 204.000262,80.8107529 204.163133,80.9292371 C204.335084,81.0543037 204.571161,81.0094233 204.689768,80.8275082 C205.605137,79.4308313 206.492698,78.0162022 207.37118,76.5955891 C208.261579,75.1827552 209.106578,73.7400011 209.977115,72.3134039 C210.841977,70.8838147 211.674491,69.4320845 212.518923,67.9893304 C213.344061,66.5334114 214.170333,65.0780908 214.952908,63.5934484 C215.044842,63.4175173 214.999442,63.1913203 214.840544,63.0728361" id="Fill-25" fill="#00AADC"></path>
                            <path d="M195.452568,81.9484987 C195.599001,82.0398554 195.785772,82.0091902 195.902919,81.8603363 C196.041064,81.6852892 196.030565,81.4144134 195.879158,81.2546989 C194.917119,80.2376371 193.878825,79.3451525 192.82119,78.483972 C191.760793,77.6272635 190.684371,76.797387 189.553243,76.0556729 C189.403494,75.9572888 189.210092,75.9905094 189.09184,76.1457519 C188.957011,76.3233544 188.972483,76.5942302 189.1261,76.7501115 C190.103611,77.7416191 191.135827,78.6443253 192.184068,79.5201996 C193.235071,80.3922407 194.305968,81.2317 195.452568,81.9484987" id="Fill-26" fill="#00AADC"></path>
                            <path d="M180.852912,77.093523 C180.681075,76.9494528 180.426925,76.9745885 180.28573,77.149925 C179.772623,77.7868994 179.30578,78.454527 178.837735,79.1209285 C178.378702,79.7940737 177.928682,80.4721234 177.502695,81.1667259 C177.081514,81.8643937 176.634498,82.5448957 176.234347,83.256664 C175.822179,83.9604625 175.420225,84.6703916 175.045909,85.3993257 C174.957588,85.5709838 174.998444,85.7880088 175.153458,85.9118479 C175.327698,86.0522397 175.580646,86.0215865 175.718236,85.8437977 C176.217524,85.1976273 176.687972,84.533065 177.149408,83.861759 C177.62286,83.1984228 178.048847,82.5044334 178.50067,81.8269968 C178.948287,81.1464948 179.37127,80.4500531 179.786442,79.7480938 C180.190799,79.0400039 180.59756,78.3325271 180.958056,77.594397 C181.039769,77.4264173 181.000715,77.2173621 180.852912,77.093523" id="Fill-27" fill="#00AADC"></path>
                            <path d="M218.856228,56.6435792 C217.554688,55.6182293 215.668586,55.8421377 214.64318,57.1436054 C213.618312,58.4450731 213.842233,60.3316092 215.143772,61.3564208 C216.445312,62.3817707 218.330875,62.1578623 219.35682,60.8563946 C220.381688,59.5549269 220.157767,57.668929 218.856228,56.6435792" id="Fill-28" fill="#78DCFA"></path>
                            <path d="M201.856496,82.6434305 C200.554885,81.6180522 198.668679,81.8425051 197.643215,83.1434706 C196.618291,84.4449745 196.842224,86.3315629 198.143835,87.356403 C199.445447,88.3817813 201.331114,88.1578667 202.356577,86.8563628 C203.381502,85.554859 203.158107,83.6688088 201.856496,82.6434305" id="Fill-29" fill="#78DCFA"></path>
                            <path d="M181.643579,71.1436883 C180.618229,72.4452503 180.842138,74.3313847 182.143605,75.3568089 C183.445073,76.3816948 185.331609,76.1577701 186.356421,74.8562081 C187.381771,73.5546461 187.157862,71.6690499 185.856395,70.6436258 C184.554927,69.6182016 182.668929,69.8421263 181.643579,71.1436883" id="Fill-30" fill="#78DCFA"></path>
                            <path d="M173.856312,87.6435792 C172.55475,86.6182293 170.668615,86.8421377 169.643191,88.1436054 C168.618305,89.4450731 168.84223,91.331071 170.143792,92.3564208 C171.445354,93.3817707 173.331488,93.1578623 174.356374,91.8563946 C175.381798,90.5549269 175.157874,88.668929 173.856312,87.6435792" id="Fill-31" fill="#78DCFA"></path>
                            <mask id="mask-2" fill="white">
                                <use xlink:href="#path-1"></use>
                            </mask>
                            <g id="Clip-2"></g>
                            <path d="M0.314098448,171.822802 C22.4017178,171.335837 44.4877023,171.233319 66.5753217,171.111357 L132.836545,171 C177.011784,171.106054 221.185387,171.045957 265.362261,171.646929 C265.723549,171.651348 266.008002,171.81308 265.999828,172.00928 C265.990019,172.197525 265.707201,172.348652 265.362261,172.353955 C221.185387,172.954043 177.011784,172.893062 132.836545,173 L66.5753217,172.88776 C44.4877023,172.765798 22.4017178,172.663279 0.314098448,172.176315 C0.134271778,172.172779 -0.00631998113,172.090588 0.000219170476,171.992488 C0.00839310998,171.900574 0.144080506,171.827221 0.314098448,171.822802" id="Fill-1" fill="#E9EFF4"></path>
                            <polyline id="Fill-7" fill="#FFFFFF" points="143.8976 153.5011 60.1096 153.5011 60.1096 49.6141 152.3826 49.6141 152.3826 153.5011"></polyline>
                            <path d="M121.148,143.152 L70,143.152 L70,133.152 L121.419,133.152 L121.419,142.945948 C121.419,143.059238 121.298,143.152 121.148,143.152" id="Fill-5" fill="#1E4B69"></path>
                            <path d="M66.9797,15.5148 C66.9797,17.1418 65.6617,18.4588 64.0357,18.4588 C62.4097,18.4588 61.0907,17.1418 61.0907,15.5148 C61.0907,13.8888 62.4097,12.5718 64.0357,12.5718 C65.6617,12.5718 66.9797,13.8888 66.9797,15.5148" id="Fill-9" fill="#FFFFFF"></path>
                            <path d="M82.4084,15.5148 C82.4084,17.1418 81.0904,18.4588 79.4644,18.4588 C77.8384,18.4588 76.5194,17.1418 76.5194,15.5148 C76.5194,13.8888 77.8384,12.5718 79.4644,12.5718 C81.0904,12.5718 82.4084,13.8888 82.4084,15.5148" id="Fill-11" fill="#E1E2E2"></path>
                            <path d="M97.8381,15.5148 C97.8381,17.1418 96.5201,18.4588 94.8941,18.4588 C93.2681,18.4588 91.9491,17.1418 91.9491,15.5148 C91.9491,13.8888 93.2681,12.5718 94.8941,12.5718 C96.5201,12.5718 97.8381,13.8888 97.8381,15.5148" id="Fill-13" fill="#E1E2E2"></path>
                            <path d="M247.6926,29.8624 L35.2216,30.9494" id="Fill-15" fill="#DDF8FF"></path>
                            <polygon id="Clip-18" points="247.694 31.7580865 247.694 29.0541116 35.2205 29.0541116 35.2205 31.7580865 247.694 31.7580865"></polygon>
                            <path d="M247.6945,30.1124 C229.9925,30.9624 212.2865,31.0474 194.5805,31.1804 L141.4645,31.5874 L88.3445,31.7234 C70.6385,31.7714 52.9325,31.8694 35.2225,31.1994 L35.2205,30.6994 C52.9235,29.8484 70.6295,29.7644 88.3345,29.6314 L141.4515,29.2244 L194.5695,29.0884 C212.2765,29.0404 229.9815,28.9444 247.6915,29.6124 L247.6945,30.1124 Z" id="Fill-17" fill="#004F81"></path>
                            <path d="M125.4816,68.7989 L69.9906,68.7989 L69.9906,61.9879 L119.2976,61.9879 C122.7126,61.9879 125.4816,64.7569 125.4816,68.1719 L125.4816,68.7989 Z" id="Fill-28" fill="#6E93AD"></path>
                            <path d="M79.9904,80.7149 C83.0094,80.5909 86.0264,80.5229 89.0444,80.4749 C92.0624,80.4019 95.0804,80.4219 98.0984,80.3919 C101.1164,80.3709 104.1344,80.4189 107.1524,80.4409 C110.1704,80.5029 113.1874,80.5639 116.2064,80.7149 C116.5744,80.7339 116.8574,81.0469 116.8394,81.4149 C116.8214,81.7599 116.5434,82.0299 116.2064,82.0479 C113.1874,82.1989 110.1704,82.2599 107.1524,82.3219 C104.1344,82.3439 101.1164,82.3919 98.0984,82.3709 C95.0804,82.3409 92.0624,82.3609 89.0444,82.2879 C86.0264,82.2399 83.0094,82.1719 79.9904,82.0479 C79.6224,82.0329 79.3364,81.7219 79.3514,81.3539 C79.3654,81.0049 79.6484,80.7299 79.9904,80.7149" id="Fill-30" fill="#74DCFC"></path>
                            <path d="M80.7179,92.17 C83.0079,92.046 85.2969,91.979 87.5859,91.93 C89.8759,91.857 92.1649,91.878 94.4539,91.847 C96.7439,91.827 99.0329,91.874 101.3229,91.896 C103.6129,91.959 105.9019,92.019 108.1919,92.17 C108.5599,92.194 108.8379,92.513 108.8139,92.881 C108.7909,93.22 108.5209,93.482 108.1919,93.504 C105.9019,93.655 103.6129,93.715 101.3229,93.777 C99.0329,93.8 96.7439,93.847 94.4539,93.827 C92.1649,93.796 89.8759,93.817 87.5859,93.744 C85.2969,93.695 83.0079,93.628 80.7179,93.504 C80.3499,93.483 80.0679,93.169 80.0879,92.801 C80.1069,92.458 80.3839,92.19 80.7179,92.17" id="Fill-32" fill="#74DCFC"></path>
                            <path d="M75,84 L70,84 L70,80.5294451 C70,79.6843747 70.6844394,79 71.5295897,79 L75,79 L75,84 Z" id="Fill-22" fill="#1E4B69"></path>
                            <path d="M75,106 L70,106 L70,102.529445 C70,101.684375 70.6843747,101 71.5294451,101 L75,101 L75,106 Z" id="Fill-24" fill="#74DCFC"></path>
                            <path d="M75,118 L70,118 L70,114.529445 C70,113.684375 70.6843747,113 71.5294451,113 L75,113 L75,118 Z" id="Fill-24-Copy" fill="#74DCFC"></path>
                            <path d="M75,95 L70,95 L70,91.5294451 C70,90.6843747 70.6848473,90 71.5299178,90 L75,90 L75,95 Z" id="Fill-26" fill="#00A9DE"></path>
                            <path d="M80.7179,115.17 C83.0079,115.046 85.2969,114.979 87.5859,114.93 C89.8759,114.857 92.1649,114.878 94.4539,114.847 C96.7439,114.827 99.0329,114.874 101.3229,114.896 C103.6129,114.959 105.9019,115.019 108.1919,115.17 C108.5599,115.194 108.8379,115.513 108.8139,115.881 C108.7909,116.22 108.5209,116.482 108.1919,116.504 C105.9019,116.655 103.6129,116.715 101.3229,116.777 C99.0329,116.8 96.7439,116.847 94.4539,116.827 C92.1649,116.796 89.8759,116.817 87.5859,116.744 C85.2969,116.695 83.0079,116.628 80.7179,116.504 C80.3499,116.483 80.0679,116.169 80.0879,115.801 C80.1069,115.458 80.3839,115.19 80.7179,115.17" id="Fill-32" fill="#74DCFC"></path>
                            <path d="M81.131,103.6261 C83.385,103.5011 85.639,103.4341 87.893,103.3851 C90.147,103.3131 92.401,103.3331 94.655,103.3031 C96.909,103.2821 99.163,103.3301 101.417,103.3521 C103.671,103.4141 105.925,103.4741 108.179,103.6261 C108.547,103.6501 108.825,103.9691 108.8,104.3371 C108.777,104.6751 108.507,104.9381 108.179,104.9591 C105.925,105.1101 103.671,105.1711 101.417,105.2331 C99.163,105.2551 96.909,105.3031 94.655,105.2821 C92.401,105.2521 90.147,105.2721 87.893,105.1991 C85.639,105.1511 83.385,105.0831 81.131,104.9591 C80.763,104.9381 80.482,104.6241 80.501,104.2561 C80.521,103.9131 80.797,103.6461 81.131,103.6261" id="Fill-34" fill="#74DCFC"></path>
                            <path d="M38.5181423,170.747294 C37.4020785,170.380014 33.961498,169.701886 32.3687051,169.248568 C32.2763157,169.707437 32.1820785,170.094146 32.0878414,170.387415 C32.0259405,170.578919 31.847629,170.708438 31.6480679,170.708438 L31.6360573,170.708438 L26.1324219,170.563192 C25.88759,170.556716 25.6898768,170.359661 25.6824856,170.114499 C25.670475,169.731491 25.6483015,169.340157 25.627052,168.947898 L25.3591228,168.940497 L25.1808113,170.187585 C25.0015759,171.442999 25.9735122,172.566119 27.2401706,172.566119 L38.2261918,172.566119 C39.2877458,172.566119 39.5261104,171.078494 38.5181423,170.747294" id="Fill-67" fill="#07A8DC"></path>
                            <path d="M20.6524382,92.38963 C17.13887,94.9985238 11.7442541,101.920419 10.4997692,105.192638 C10.2946647,105.731994 10.3297727,106.247297 10.6069408,106.768151 C11.5179001,108.478734 14.6314223,109.728598 16.712955,110.400249 C18.5145479,103.25077 15.6301515,101.191409 20.8575426,93.2324322 C20.9443886,93.1010624 21.0330824,92.9798691 21.1199285,92.8521998 C20.9517798,92.7097283 20.7974895,92.5543048 20.6524382,92.38963" id="Fill-69" fill="#C8D7E1"></path>
                            <path d="M7.6110304,162.66953 L9.75723571,162.822178 L22.508818,145.231572 C22.3933313,144.194491 22.2870835,143.154634 22.2002375,142.110151 L12.3025631,142.110151 C11.1670977,144.476658 7.02528173,153.805767 7.6110304,162.66953" id="Fill-71" fill="#C8D7E1"></path>
                            <path d="M12.3026555,142.110429 L11.7880467,142.110429 L11.280829,142.110429 C9.91161836,145.052373 6.14952279,154.017901 6.68260951,162.626326 C6.80271571,162.62355 6.91912633,162.617074 7.0567865,162.630952 L7.1464042,162.636502 L7.61112279,162.669807 C7.02537411,153.806044 11.16719,144.476936 12.3026555,142.110429" id="Fill-73" fill="#005082"></path>
                            <path d="M25.9142906,142.110429 L25.3433242,142.110429 L24.7723578,142.110429 L23.1278269,142.110429 C23.1841844,142.78208 23.2451614,143.452806 23.3144534,144.121682 C23.3375508,144.349267 23.3661915,144.575926 23.3911366,144.80351 C23.4151578,145.031095 23.4419508,145.257754 23.4678198,145.484413 C23.8650941,148.951836 24.3917136,152.377629 24.9137136,155.737736 C25.6463614,160.458724 26.33651,164.933624 26.5527012,168.971859 C26.5647118,169.196668 26.5813419,169.427027 26.5905808,169.649986 L31.3033631,169.773955 C31.3551012,169.57875 31.4059154,169.348391 31.4576534,169.100453 C32.4979578,164.040864 33.4384817,148.489267 33.7904853,142.110429 L25.9142906,142.110429 Z" id="Fill-75" fill="#C8D7E1"></path>
                            <path d="M34.2537256,142.110429 L33.7908548,142.110429 C33.4379274,148.489267 32.4983274,164.040864 31.4570991,169.100453 C31.4062849,169.348391 31.3554708,169.57875 31.3037327,169.773955 L26.5909504,169.649986 C26.5817115,169.427027 26.5650814,169.196668 26.5530708,168.971859 C26.3368796,164.933624 25.6467309,160.458724 24.9140831,155.737736 C24.3920831,152.377629 23.8645398,148.951836 23.4681893,145.484413 C23.4413964,145.257754 23.4155274,145.031095 23.3905823,144.80351 C23.3656371,144.575926 23.3379203,144.349267 23.3138991,144.121682 C23.244607,143.452806 23.1845539,142.78208 23.1281964,142.110429 L22.6671734,142.110429 L22.1996831,142.110429 C22.2874531,143.154911 22.3937008,144.194768 22.5091876,145.23185 L9.75760526,162.822455 L10.3008548,162.860386 L10.8441044,162.899242 L22.6634778,146.594581 C23.0459699,149.733579 23.5273185,152.833722 24.0003522,155.881133 C24.7256088,160.548462 25.4092902,164.975255 25.6273292,168.947805 C25.6485787,169.340064 25.6707522,169.731398 25.6827628,170.115331 C25.6901539,170.359568 25.8878672,170.556623 26.1317752,170.563099 L31.6363345,170.708346 L31.6483451,170.708346 C31.8479061,170.708346 32.0262177,170.578826 32.0881185,170.387322 C32.1823557,170.094053 32.275669,169.707345 32.3689823,169.248476 C33.4397752,163.947425 34.3701362,148.458737 34.7175203,142.110429 L34.2537256,142.110429 Z" id="Fill-77" fill="#005082"></path>
                            <path d="M40.3510552,77.5015424 L40.4360534,77.5015424 C40.6642552,77.5015424 40.8490339,77.3165144 40.8490339,77.0880049 L40.8490339,76.2304005 C40.8490339,76.0028161 40.6642552,75.8177882 40.4360534,75.8177882 L40.3510552,75.8177882 C40.1228534,75.8177882 39.9380746,76.0028161 39.9380746,76.2304005 L39.9380746,77.0880049 C39.9380746,77.3165144 40.1228534,77.5015424 40.3510552,77.5015424" id="Fill-79" fill="#005082"></path>
                            <path d="M10.8437348,162.898964 L10.3014092,162.860109 L9.75723571,162.822178 L7.6110304,162.66953 L7.14723571,162.63715 L7.05669411,162.630674 C6.91903394,162.616797 6.80262332,162.623273 6.68344102,162.626048 C5.37613128,162.656578 5.03613836,163.642777 4.64902686,165.097096 C4.04387642,167.37664 2.22380562,172.237324 3.37220562,172.487112 C5.28004633,172.9025 10.9629171,162.907291 10.9629171,162.907291 L10.8437348,162.898964 Z" id="Fill-81" fill="#07A8DC"></path>
                            <path d="M51.9967366,86.8482284 C51.9607047,86.8019714 51.9098906,86.7603401 51.7694587,86.7686664 C50.3411189,86.878758 46.4736994,91.3388563 44.6296074,94.5879468 C43.3112109,96.9109725 41.6204853,98.1784139 41.5299437,98.2450239 C41.8856428,100.396899 41.9521631,102.112108 41.9586304,102.303612 C41.9678693,102.55895 41.7673844,102.772657 41.5123897,102.780984 C41.2703295,102.807813 41.0439755,102.590405 41.0356605,102.335066 C41.031041,102.219424 40.6143649,91.634901 36.3173348,89.8956384 C36.1695118,89.8355044 36.0179932,89.7873971 35.8609313,89.7494664 C35.663218,89.700434 35.4599614,89.6643535 35.2465419,89.6532519 C35.2188251,89.6523267 35.1911083,89.6514016 35.1633915,89.6514016 C33.8228215,89.6514016 33.2028888,91.3305301 32.9127861,92.880139 C32.8924605,92.9865301 32.8693631,93.0938463 32.8527331,93.1993122 C31.8096569,99.64291 34.4492215,111.216407 37.1312853,111.962995 C37.1626977,111.972246 37.1959578,111.971321 37.229218,111.977797 C40.8444145,112.710508 47.6368817,99.1146552 49.1178835,94.3520362 C49.1548392,94.2317681 49.2398375,94.131853 49.3525525,94.0754194 C50.3503578,93.5749189 51.6317985,91.3083267 52.0946693,89.2230619 C52.3395012,88.1221457 52.3025454,87.2349368 51.9967366,86.8482284" id="Fill-83" fill="#C8D7E1"></path>
                            <path d="M40.8491263,77.0877274 C40.8491263,77.3162369 40.6643476,77.5012648 40.4361458,77.5012648 L40.3511476,77.5012648 C40.1229458,77.5012648 39.938167,77.3162369 39.938167,77.0877274 L39.938167,76.2310481 C39.938167,76.0025386 40.1229458,75.8175106 40.3511476,75.8175106 L40.4361458,75.8175106 C40.6643476,75.8175106 40.8491263,76.0025386 40.8491263,76.2310481 L40.8491263,77.0877274 Z M42.7800644,76.9036246 C42.1471971,76.2662034 41.2805847,75.3928715 41.0228184,73.8275352 C40.8509741,72.7830525 40.3160396,71.9726302 39.5787723,71.37499 C39.5168715,74.1781631 38.2224962,76.8869721 35.6291263,77.0618235 C35.7473847,77.6159821 35.7612431,78.2173229 35.6891794,78.8232894 C35.5330414,80.1286615 34.9546838,81.457162 34.022475,82.4230078 C33.4690626,82.9965944 32.7946201,83.4452872 32.0074626,83.6756469 C32.2144148,84.9902704 32.0462661,86.4723441 31.4965493,87.9322145 C32.6329387,88.0691352 33.8848148,88.3318749 35.2715794,88.7287598 C35.2789706,88.7287598 35.2863617,88.7287598 35.292829,88.7287598 C35.362121,88.7324603 35.4591299,88.7472626 35.562606,88.7639151 C35.6854838,88.7777922 35.8111334,88.7861184 35.9293918,88.8101721 C36.023629,88.8296 36.1132467,88.8610548 36.2047122,88.8869587 L35.9432502,88.6094168 L33.2445564,85.735933 L33.2962945,85.4195352 C33.3046095,85.3936313 33.3304785,85.3816045 33.3434131,85.358476 C33.3434131,85.3196201 33.3397175,85.2807643 33.3498803,85.2409832 C33.4071617,85.0217251 33.6141139,84.8894302 33.831229,84.9060827 C33.8589458,84.9088581 33.8857387,84.9033073 33.9143794,84.9116335 C34.6239299,85.0975866 34.9685423,85.0892603 35.7492325,85.0513296 C35.9062945,85.0439285 36.0531936,85.0115486 36.20656,84.9948961 C38.1476608,84.7765631 39.729367,83.7977654 40.7465741,82.2259531 C40.3483759,81.9715397 39.807898,81.5265475 39.5140998,80.8400939 C39.4133954,80.6060335 39.5214909,80.3340425 39.75616,80.2332022 C39.9889812,80.1305117 40.2624538,80.2406034 40.3631582,80.476514 C40.5534803,80.9215062 40.912875,81.2268022 41.1937387,81.4136805 C41.4163971,80.9400089 41.6113387,80.4404335 41.7434555,79.8899754 C41.8838874,79.3006615 42.4012679,78.9814883 42.8567476,78.701171 C43.2928254,78.4319553 43.5570591,78.2515531 43.5450485,78.0211933 C43.5284184,77.6751911 43.2438591,77.3708201 42.7800644,76.9036246 L42.7800644,76.9036246 Z" id="Fill-85" fill="#C8D7E1"></path>
                            <path d="M37.26719,112.90525 C37.1387688,112.893223 37.0094237,112.888597 36.8837741,112.853442 C33.518029,111.918126 30.8812361,99.593415 31.9400184,93.0517524 C31.9501812,92.9916183 31.9621918,92.9379602 31.9723546,92.8796764 C32.5858201,89.3743222 34.0908431,88.6786172 35.2715794,88.7294999 C33.8848148,88.3316898 32.6329387,88.0689502 31.4965493,87.9320295 C31.2738909,88.5259692 30.9930272,89.1171334 30.6391759,89.69072 C30.2853246,90.2652317 29.8834308,90.7814597 29.4528962,91.2495803 C27.4009281,93.4754664 24.626475,94.4311356 22.4220644,93.6077613 C22.1550591,93.5078463 21.8926732,93.3903535 21.6450697,93.2367803 C21.4584431,93.122063 21.2847511,92.9916183 21.1193741,92.8519222 C21.0325281,92.9795915 20.9447582,93.1007848 20.8579122,93.2321546 C15.630521,101.191131 18.5149175,103.250492 16.7124007,110.399971 C16.692075,110.480459 16.6791405,110.553545 16.6578909,110.635882 C16.6384892,110.708043 16.6172396,110.777428 16.5978378,110.849589 C16.5571865,110.999462 16.5165352,111.151185 16.4740361,111.297357 C14.456252,118.193348 10.2396007,121.793066 11.0812679,142.110059 L11.280829,142.110059 L11.7880467,142.110059 L12.3026555,142.110059 L22.199406,142.110059 L22.6668962,142.110059 L23.1279192,142.110059 L24.7724502,142.110059 L25.3434166,142.110059 L25.914383,142.110059 L33.7905777,142.110059 L34.2534485,142.110059 L34.7172431,142.110059 L35.5579865,142.110059 C35.5579865,142.110059 37.5212608,121.638568 37.26719,112.90525" id="Fill-87" fill="#07A8DC"></path>
                            <path d="M52.0951313,89.223432 C51.6322605,91.3077716 50.3508198,93.5752889 49.3520906,94.0757895 C49.2402994,94.132223 49.1553012,94.2321381 49.1174215,94.3514811 C47.6373437,99.1141001 40.8448764,112.709953 37.2287561,111.977242 C37.1964198,111.970766 37.1622357,111.971691 37.1308233,111.963365 C34.4487596,111.216777 31.809195,99.64328 32.8522711,93.1987571 C32.8698251,93.0942163 32.8919985,92.9869001 32.9123242,92.8805091 C33.2033508,91.329975 33.8223596,89.6508465 35.1638534,89.6508465 C35.1906463,89.6508465 35.2183631,89.6517716 35.2470038,89.6536219 C35.4604233,89.6647236 35.6627561,89.700804 35.8613932,89.7489113 C36.0175313,89.786842 36.1699738,89.8358744 36.3168729,89.8960085 C40.6148269,91.6343459 41.031503,102.219794 41.0351985,102.334511 C41.0435136,102.58985 41.2698676,102.808183 41.5128516,102.781354 C41.7678463,102.773027 41.9674074,102.55932 41.9581685,102.303057 C41.9517012,102.111553 41.8851808,100.396344 41.5294817,98.245394 C41.6200233,98.1787839 43.3116729,96.9113426 44.6300693,94.5873917 C46.4741614,91.3383012 50.3415808,86.8782029 51.7699207,86.7690364 C51.9094286,86.759785 51.9602428,86.8023415 51.9971985,86.8485984 C52.3030074,87.2353068 52.3390392,88.1225158 52.0951313,89.223432 M52.7215313,86.2740867 C52.4739277,85.9613895 52.1219242,85.8133672 51.6987808,85.8466722 C49.5544233,86.0104219 45.3738038,91.4049113 43.8272056,94.1303727 C42.9532021,95.66888 41.8861047,96.7216889 41.3400835,97.2027616 C40.6564021,93.7862208 39.2262145,89.7757403 36.2716021,88.9061091 L36.9848481,85.8272443 C39.091326,85.4100063 40.7691171,84.156442 41.8001826,82.2793336 C41.8168127,82.248804 41.8297472,82.215499 41.8463773,82.1849694 C42.1826746,81.5540241 42.4598428,80.8666454 42.6418499,80.1052554 C42.6935879,79.8878476 43.023418,79.6843169 43.3412375,79.4881873 C43.8604658,79.1680889 44.5062676,78.7702789 44.4683879,77.9765091 C44.4342038,77.2576755 43.9491596,76.7692018 43.4345508,76.2520487 C42.8303242,75.6414565 42.1438711,74.9513024 41.9341472,73.677385 C41.6948587,72.2156644 40.8180835,71.0157582 39.5338711,70.2164375 C39.5274038,70.1535281 39.5246322,70.0896934 39.517241,70.0277091 C39.517241,70.0277091 36.8130038,68.3837359 33.9165968,69.2542923 C32.1565791,69.782547 30.8926923,70.1479772 29.4920693,72.6366029 C27.9510145,73.0334878 26.4727844,73.9974834 25.6126392,75.2491973 C24.9936304,76.1512085 24.5381508,77.4149493 24.3395136,78.7212465 C24.1972339,79.6639638 23.701103,80.5002901 22.9601401,81.0997806 C22.1424941,81.7612554 21.3941401,82.6003571 20.7797508,83.5958074 C19.0613083,86.3841783 18.8903879,89.5629582 20.12471,91.6574744 C16.1251738,94.5753649 10.7444162,101.949653 9.63574367,104.863843 C9.33455429,105.655763 9.38721624,106.443057 9.79188173,107.202596 C10.859903,109.209224 14.2598322,110.584907 16.4734817,111.297264 C16.5169047,111.151092 16.5575561,111.000295 16.5982074,110.849497 C16.6176092,110.777336 16.6388587,110.70795 16.6582605,110.63579 C16.67951,110.553452 16.6924446,110.480366 16.7127702,110.399879 C14.6321614,109.729153 11.5177154,108.478364 10.6067561,106.767781 C10.3295879,106.246927 10.29448,105.731624 10.4995844,105.192268 C11.7449932,101.920049 17.1386853,94.9990789 20.6522534,92.3892599 C20.7973047,92.5548599 20.951595,92.7102834 21.1197437,92.8518297 C21.2841968,92.9915258 21.4578888,93.1219705 21.6454392,93.2366878 C21.8930428,93.390261 22.1545047,93.5077538 22.4224339,93.6076688 C24.6268446,94.4310431 27.4012977,93.4753739 29.4523419,91.2494878 C29.8828764,90.7822923 30.2856941,90.2651392 30.6395454,89.6906275 C30.9933968,89.1170409 31.2733366,88.5258767 31.4969189,87.931937 C32.0457118,86.4720666 32.2138605,84.9899929 32.0069083,83.6753694 C32.7949897,83.4450096 33.4685083,82.997242 34.0219207,82.4227303 C34.9550534,81.4568845 35.5334109,80.1283839 35.6886251,78.823937 C35.7606888,78.2170454 35.7468304,77.6166297 35.628572,77.0615459 C38.2228658,76.8876197 39.5163171,74.1788107 39.5791419,71.3747124 C40.3154853,71.9723526 40.8513437,72.782775 41.0231879,73.8272577 C41.2800304,75.3935191 42.1466428,76.266851 42.77951,76.9042722 C43.2433047,77.3705426 43.5287879,77.6749135 43.545418,78.0209158 C43.5565047,78.2522007 43.293195,78.4316778 42.8561932,78.7008934 C42.4007136,78.9821359 41.8842569,79.3003839 41.7429012,79.8896979 C41.6117083,80.440156 41.4167667,80.9397314 41.1931844,81.4134029 C40.9123207,81.2265247 40.552926,80.9212286 40.3626038,80.4762364 C40.2618994,80.2403258 39.9893508,80.1302342 39.7565295,80.2329247 C39.5218605,80.3337649 39.412841,80.605756 39.5135454,80.8398163 C39.8073437,81.5271951 40.3478215,81.9721873 40.7469437,82.2266007 C39.7297366,83.7974878 38.1471065,84.7762856 36.2060056,84.9946186 C36.0526392,85.0121962 35.906664,85.043651 35.7496021,85.0519772 C34.9689118,85.0899079 34.6242994,85.0973091 33.9138251,84.911356 C33.8861083,84.9039549 33.8593154,84.9085806 33.8315985,84.9058051 C33.6144835,84.8891526 33.4066074,85.0214476 33.3502499,85.2407057 C33.3373154,85.2638342 33.3049791,85.3933538 33.2957401,85.4192577 L33.244926,85.7356554 L35.9436198,88.6091392 L36.2041578,88.8866811 C36.1126923,88.8607772 36.0239985,88.8293225 35.9288375,88.8098945 C35.811503,88.7858409 35.6858534,88.7784398 35.5629755,88.7636375 C35.4724339,88.753461 35.3865118,88.7340331 35.2931985,88.7294074 C35.2858074,88.7284822 35.2784162,88.7294074 35.271949,88.7294074 C34.0912127,88.6794498 32.5852658,89.3742297 31.9727242,92.8805091 C31.9616375,92.9387929 31.9505508,92.9915258 31.9403879,93.0516599 C30.8816056,99.5933225 33.5183985,111.918033 36.8841437,112.853349 C37.0088693,112.88943 37.1391384,112.89313 37.2675596,112.905157 C37.3359277,112.911633 37.403372,112.932911 37.472664,112.932911 C42.1170782,112.931986 48.5806392,98.9956822 49.9433826,94.8029493 C51.2802569,93.9740241 52.5533826,91.4243392 52.9968516,89.4241873 C53.2185861,88.4259616 53.3497791,87.0697068 52.7215313,86.2740867" id="Fill-89" fill="#005082"></path>
                            <path d="M240.838977,185.911479 L240.838977,185.878174 L240.838977,185.911479 Z" id="Fill-1" fill="#07A8DC"></path>
                            <path d="M245.137855,86.333239 L238.456255,81.7713753 C237.582251,84.3987719 237.822463,88.2436524 239.962202,89.7821596 C240.194099,89.9496099 240.441702,90.0976323 240.719794,90.2058736 C243.023986,91.0986334 244.812644,88.02902 245.50926,86.5867272 L245.137855,86.333239 Z" id="Fill-33" fill="#0C4A6C"></path>
                            <path d="M247.724573,101.110217 C247.441861,98.4606173 245.908197,96.2883894 243.804491,95.0422262 C243.570746,95.1042106 243.318523,95.1412162 243.041355,95.1412162 C242.519355,95.1412162 241.926215,95.0320497 241.277642,94.8118665 C240.91178,94.6869726 240.679882,94.5204475 240.532983,94.3465212 C240.478473,94.3816765 240.417496,94.4075804 240.350052,94.4168318 C240.31864,94.4214575 237.311365,94.8497972 235.855309,96.3078173 C235.776778,96.3864542 235.676997,96.4243849 235.574445,96.4336363 L233.222211,98.8676788 L231.147146,101.043607 L233.479978,98.8204966 C233.663833,98.6456452 233.956707,98.6521212 234.133171,98.8371491 C234.308711,99.0221771 234.302243,99.3154463 234.116541,99.4912229 L230.603896,102.839303 L230.721231,103.066888 L237.721574,107.697212 C237.754834,107.667607 237.788095,107.642628 237.821355,107.613949 C238.013525,107.446499 238.306399,107.467777 238.4727,107.661131 C238.639925,107.854485 238.619599,108.14683 238.426505,108.313355 C237.559893,109.061793 236.684965,109.726968 235.811886,110.343111 L236.249811,110.129404 L236.075196,122.858401 C236.30155,122.906508 236.530675,122.952765 236.76442,122.993471 C236.769964,122.994396 236.775507,122.995321 236.781974,122.996246 C240.116307,123.572608 244.068725,123.410709 246.240799,123.248809 L246.242647,123.248809 C246.505033,123.230307 246.742473,123.209954 246.948502,123.192376 C247.108335,122.245958 248.843408,111.601301 247.724573,101.110217" id="Fill-35" fill="#0C4A6C"></path>
                            <path d="M237.817936,94.1142186 L237.814241,94.1179192 C237.81886,94.1160689 237.824404,94.1142186 237.829947,94.1123684 C237.825328,94.1132935 237.821632,94.1132935 237.817936,94.1142186" id="Fill-37" fill="#07A8DC"></path>
                            <path d="M240.687089,76.2809489 C238.431864,75.5251098 235.556706,75.7082875 234.215213,77.7565467 L245.470087,85.4407567 C246.580607,81.6190048 244.488912,77.5548662 240.687089,76.2809489" id="Fill-41" fill="#FFFFFF"></path>
                            <path d="M233.374469,136.620131 C232.146614,136.802383 231.050876,136.881945 230.066005,136.87917 C229.797152,136.878245 229.530147,136.876394 229.279772,136.861592 L229.261294,137.782106 C229.50705,137.795983 229.753729,137.80986 230.017039,137.81171 C230.044756,137.81171 230.068777,137.814486 230.09557,137.814486 C231.11832,137.814486 232.259329,137.721047 233.509358,137.534169 C233.762505,137.497163 233.936197,137.261252 233.898317,137.009614 C233.861361,136.757051 233.624844,136.581275 233.374469,136.620131" id="Fill-45" fill="#FFFFFF"></path>
                            <path d="M247.873412,123.099862 C247.855858,123.101712 247.517713,123.142418 246.948594,123.192376 C246.741642,123.209954 246.505125,123.230307 246.241815,123.248809 L246.239968,123.248809 C244.068817,123.410709 240.116399,123.572608 236.782067,122.996246 C236.775599,122.995321 236.769132,122.994396 236.764513,122.993471 C236.530768,122.952765 236.301642,122.906508 236.074364,122.858401 L236.249904,110.128479 L235.811978,110.343111 C234.174838,111.499536 232.552481,112.413574 231.006807,113.066722 C230.582739,113.247125 230.166063,113.408099 229.756778,113.547795 L229.280049,136.861315 C229.530424,136.877042 229.79743,136.878892 230.066283,136.879817 C231.051153,136.881668 232.146891,136.803031 233.374746,136.619853 C233.624198,136.580997 233.861638,136.757699 233.898594,137.009337 C233.936474,137.2619 233.762782,137.497811 233.509635,137.534816 C232.259607,137.721694 231.117674,137.814208 230.095847,137.814208 C230.069054,137.814208 230.044109,137.811433 230.017316,137.811433 C229.754007,137.809583 229.507327,137.795706 229.260647,137.781828 L228.751582,162.683813 L229.304994,162.683813 L235.529267,162.683813 L236.062353,123.796492 C238.055192,124.202628 240.279005,124.334923 242.268148,124.334923 C244.001373,124.334923 245.548895,124.239634 246.599362,124.153596 C246.632622,124.150821 246.664035,124.148045 246.697295,124.14527 C246.780445,124.137869 246.862672,124.131393 246.939355,124.123992 C246.974463,124.121216 247.006799,124.118441 247.04006,124.115665 C247.162014,124.103639 247.276576,124.093462 247.377281,124.08236 C247.717274,124.049055 247.932541,124.024077 247.985203,124.017601 C248.23835,123.987071 248.418509,123.756711 248.388021,123.503223 C248.356608,123.249735 248.122863,123.061931 247.873412,123.099862" id="Fill-47" fill="#78DCFA"></path>
                            <path d="M232.999091,78.0453753 L233.384355,78.308115 L233.765923,78.5680792 L238.455608,81.7709127 L245.138132,86.3327764 L245.509537,86.5862647 L246.082351,86.9785239 C246.161806,87.032182 246.252348,87.059011 246.341965,87.059011 C246.489788,87.059011 246.63484,86.9887004 246.723534,86.8564055 C246.867661,86.6454736 246.813151,86.3577552 246.602503,86.2143585 L246.274521,85.9904747 L245.872627,85.7157082 L245.46981,85.4409418 L234.214935,77.7567317 L233.854617,77.5097194 L233.471201,77.24883 L230.742942,75.3855988 C230.534142,75.2431272 230.245888,75.2949351 230.100836,75.506792 C229.957633,75.7177239 230.012142,76.0054423 230.22279,76.1497641 L232.999091,78.0453753 Z" id="Fill-51" fill="#78DCFA"></path>
                            <path d="M245.469902,85.4406642 L245.87272,85.7154307 L246.274614,85.9901972 C247.719583,81.6124363 245.349796,76.8683201 240.979778,75.403824 C237.847778,74.3528653 234.888546,75.125357 233.471293,77.2485525 L233.854709,77.510367 L234.215028,77.7564542 C235.557445,75.708195 238.431679,75.5250173 240.686904,76.2808564 C244.488727,77.5556989 246.580422,81.6189123 245.469902,85.4406642" id="Fill-53" fill="#005082"></path>
                            <polygon id="Clip-59" points="226.626549 123.7964 246.94059 123.7964 246.94059 188.16956 226.626549 188.16956"></polygon>
                            <path d="M246.696925,124.145177 C246.664589,124.147953 246.633177,124.150728 246.599917,124.153504 C245.549449,124.240467 244.001003,124.334831 242.267779,124.334831 C240.279559,124.334831 238.054823,124.202536 236.061984,123.7964 L235.528897,162.68372 L229.305548,162.68372 C229.405329,167.1836 229.64277,171.512328 229.865428,175.312802 C229.883906,175.611622 229.900536,175.911367 229.91809,176.203711 C230.161074,180.312257 230.370798,183.729723 230.339386,185.944507 C229.038543,186.082353 228.029651,186.225749 227.648083,186.36267 C226.302894,186.843743 226.205885,187.613459 227.840253,187.999242 C229.474621,188.3841 241.007587,187.999242 241.007587,187.999242 L241.007587,187.910429 L241.007587,187.570902 L241.007587,187.231376 L241.007587,186.557875 L241.007587,186.218348 C241.007587,186.112882 241.008511,186.012967 241.008511,185.909352 L241.008511,185.878822 C241.008511,185.774281 241.009435,185.673441 241.009435,185.57075 C241.008511,185.455108 241.009435,185.344091 241.009435,185.230299 C241.008511,181.972882 241.077803,178.921772 241.196986,176.031635 C241.205301,175.850308 241.211768,175.66528 241.219159,175.484878 C242.228051,152.504409 246.575895,140.373052 246.920508,126.200838 C246.937138,125.513459 246.942681,124.821454 246.93991,124.124824 C246.863226,124.1313 246.781,124.137776 246.696925,124.145177" id="Fill-58" fill="#0C4A6C"></path>
                            <path d="M247.377188,124.082823 C247.276484,124.093925 247.162845,124.103176 247.039967,124.115203 C247.006707,124.117978 246.974371,124.121679 246.939263,124.124454 C246.942034,124.822009 246.936491,125.514014 246.920785,126.200468 C246.576173,140.372682 242.228328,152.504964 241.219436,175.485433 C241.211121,175.665835 241.204654,175.849938 241.197263,176.031265 C241.07808,178.921402 241.007865,181.972512 241.008788,185.230854 C241.008788,185.344646 241.007865,185.455663 241.008788,185.57038 C241.008788,185.673071 241.007865,185.774836 241.007865,185.878452 L241.007865,185.908982 C241.007865,186.012597 241.006941,186.113437 241.006941,186.217978 L241.006941,186.557504 L241.006941,187.231931 L241.006941,187.570532 L241.006941,187.910059 C244.117691,187.866577 247.123118,187.768512 247.36333,187.760186 L247.691312,187.749084 L247.691312,186.199475 C247.756909,184.872825 249.753443,144.068615 247.377188,124.082823" id="Fill-61" fill="#61798E"></path>
                            <path d="M232.162851,89.0826576 L229.571284,89.6307558 L227.019563,93.9254901 L225.025135,99.3726596 C223.991957,101.874644 223.291509,103.747673 222.923791,104.991747 C222.556073,106.235822 222.281724,107.660757 222.100742,109.266553 L222.923791,112.691445 L227.434603,113.572909 L234.444409,110.478679 L237.721112,107.696472 L230.511045,102.927377 L227.906977,104.991747 L227.568443,104.452932 L230.260914,101.649971 L232.553371,89.9686295 L232.162851,89.0826576 Z" id="Path-2" fill="#FFFFFF"></path>
                            <path d="M233.104064,78.7567688 L230.020948,81.1822378 L231.336143,83.9465039 L232.075858,87.945298 L233.385515,89.0826576 C234.891206,90.3123102 235.650276,90.8135013 235.662726,90.5862309 C235.665128,90.5423861 236.308438,91.3805296 237.981693,91.8590057 C238.084018,91.888266 237.600791,94.1948651 237.721112,94.2198184 C238.232638,94.3259031 239.622787,94.2983727 240.320664,93.9254901 C240.83878,93.6486557 240.694612,94.0174079 240.708872,93.2765716 C240.719101,92.7451712 240.952643,93.0316789 240.981559,92.4261163 C240.986506,92.3225239 240.846157,90.8518178 240.846157,90.7721537 C240.846157,90.7120738 240.606466,90.3010384 240.579147,90.1499998 C240.461024,89.4969216 239.73882,86.7040467 238.412535,81.7713753 L233.914962,78.4219572 L233.104064,78.7567688 Z" id="Path-3" fill="#FFFFFF"></path>
                            <path d="M243.996476,93.9439929 C243.564094,94.3149739 242.677156,94.3112734 241.575874,93.9356667 C241.359683,93.8625807 241.210013,93.7645158 241.220175,93.7016063 C241.294087,93.2510633 242.719655,92.3351751 243.764579,92.3333248 L243.767351,92.3333248 C244.235765,92.3333248 244.268101,92.5248287 244.283807,92.6173427 C244.389131,93.2455125 244.292122,93.692355 243.996476,93.9439929 M243.767351,91.4081851 L243.762731,91.4081851 C242.483138,91.4100354 240.547581,92.4600689 240.324922,93.5064019 C240.291662,93.5036265 240.258402,93.4953002 240.224218,93.4999259 C240.146611,93.5110276 239.058264,93.666451 237.829485,94.1123684 C237.823942,94.1142186 237.818398,94.1160689 237.814703,94.1179192 C237.784214,94.1290209 237.753726,94.1401226 237.723237,94.1521494 C237.477482,94.2437382 237.228954,94.3473538 236.980427,94.4639214 C236.332777,94.7664421 235.700834,95.1550008 235.201931,95.653651 C235.021772,95.8340533 235.021772,96.1263974 235.201931,96.3077248 C235.292473,96.3974633 235.410731,96.4427952 235.52899,96.4427952 C235.544696,96.4427952 235.558554,96.4353941 235.57426,96.4335438 C235.676813,96.4242924 235.777517,96.3863617 235.855124,96.3077248 C237.311181,94.8497047 240.319379,94.421365 240.349867,94.4167393 C240.417312,94.4074879 240.478289,94.381584 240.532798,94.3473538 C240.679697,94.5212801 240.911595,94.6868801 241.278381,94.8117739 C241.92603,95.0319572 242.51917,95.1411237 243.04117,95.1411237 C243.319262,95.1411237 243.570561,95.1041181 243.804306,95.0421337 C244.109191,94.9616466 244.378044,94.8339773 244.595159,94.6489494 C244.980423,94.3195996 245.398947,93.6738522 245.194767,92.4637695 C245.083899,91.8022946 244.550813,91.4081851 243.767351,91.4081851" id="Fill-49" fill="#78DCFA"></path>
                            <path d="M237.194493,92.4261163 L237.014334,91.8784336 L237.333077,91.8590057 L237.194493,92.4261163 Z M237.821817,107.614134 C237.788557,107.642814 237.754373,107.667792 237.721112,107.696472 C236.589342,108.668793 235.478822,109.502344 234.40341,110.208226 C229.335852,113.539654 225.079473,114.015176 223.280652,112.515524 C220.465548,110.163819 224.154656,101.611828 225.927608,97.5014325 C226.429282,96.3394571 226.790525,95.5003554 226.894001,95.0784917 C227.903817,90.940342 229.664758,89.7913185 230.62376,89.4749208 C231.405374,89.2177319 232.006829,89.3861074 232.205466,89.5507822 C232.474319,89.7996448 232.098295,91.6998817 231.210433,93.7758951 C231.197498,93.808275 231.187335,93.8406548 231.180868,93.874885 L229.598238,102.51939 L227.568443,104.452932 C227.383665,104.629634 227.376273,104.921978 227.551813,105.107931 C227.643279,105.20322 227.765233,105.251327 227.887187,105.251327 C228.00175,105.251327 228.116312,105.208771 228.20593,105.123658 L230.511045,102.927377 L230.603434,102.838563 L234.117003,99.4914079 C234.301781,99.3147062 234.309173,99.0223621 234.133633,98.8373342 C233.956245,98.6513811 233.664295,98.6458303 233.479516,98.8206817 L231.146684,101.043792 L230.737399,101.434201 L232.080741,94.0922928 C232.498341,93.1116448 233.222673,91.2021565 233.185718,89.9189878 C233.886953,90.510152 234.706447,90.993075 235.663601,91.3131733 C235.762457,91.3464783 235.842836,91.3714571 235.93153,91.4001364 C235.924139,91.4658213 235.927834,91.5333565 235.949084,91.5981163 L236.822164,94.2467912 C236.851728,94.3356046 236.90901,94.4086906 236.981073,94.4632738 C237.228677,94.3467062 237.478128,94.2440157 237.72296,94.1515018 L238.379849,91.4695219 C238.414957,91.3270504 238.379849,91.1762526 238.286535,91.0633856 C238.254199,91.0254548 238.2117,91.0023263 238.170125,90.9764224 C238.133169,90.9542191 238.097137,90.9366414 238.055562,90.9246146 C237.975183,90.8496783 237.869859,90.7997208 237.752525,90.7978705 C237.022649,90.7839934 236.694666,90.6831532 235.955551,90.4361409 C234.05233,89.7987196 232.710836,88.4794705 232.056719,86.7392828 C232.269215,86.7864649 232.535296,86.8290213 232.841105,86.8290213 C232.931647,86.8290213 233.024036,86.8253208 233.119197,86.8179196 C233.373268,86.7957163 233.561742,86.5709074 233.539569,86.3164939 C233.517396,86.0620805 233.285498,85.8705766 233.039742,85.8955554 C232.45307,85.9464381 231.956939,85.7558593 231.954167,85.754009 C231.89319,85.7299554 231.829442,85.720704 231.767541,85.7225543 C231.647434,85.1369409 231.581838,84.5235733 231.607707,83.8694995 C231.631728,83.2663085 231.221519,82.8213163 230.861201,82.4281319 C230.515665,82.0534504 230.311484,81.8092135 230.383548,81.5927308 C230.492567,81.2661565 230.848266,81.0524493 231.418309,80.7305007 C232.136174,80.3252895 233.095176,79.7729811 233.765923,78.5684493 L233.384355,78.308485 L232.999091,78.0457453 C232.454918,79.0735755 231.666836,79.5278191 230.964677,79.924704 C230.33181,80.2818079 229.735898,80.6185588 229.507696,81.2994615 C229.257321,82.050675 229.769158,82.607609 230.180291,83.0553766 C230.432514,83.329218 230.693052,83.6123107 230.683813,83.8334191 C230.613597,85.6059867 231.035817,87.1824247 231.868245,88.4572671 C231.429396,88.3851062 230.901852,88.4091599 230.334581,88.5960381 C229.193573,88.9725699 227.11204,90.2871934 225.9969,94.8592336 C225.911902,95.2043107 225.545116,96.0563643 225.079473,97.1350772 C223.074624,101.782054 219.343017,110.431184 222.68936,113.226031 C223.531027,113.929138 224.667417,114.265888 226.004291,114.265888 C227.12867,114.265888 228.403643,114.006849 229.756224,113.54798 C230.166433,113.408284 230.583109,113.246384 231.007176,113.066907 C232.55285,112.413759 234.174284,111.499721 235.812348,110.343296 C236.684503,109.727153 237.560355,109.061978 238.426043,108.312615 C238.619137,108.147015 238.639463,107.853745 238.473162,107.660391 C238.305937,107.467037 238.013987,107.446684 237.821817,107.614134 L237.821817,107.614134 Z" id="Fill-63" fill="#005082"></path>
                            <path d="M233.392485,82.5427567 C233.35091,82.7675657 233.499657,82.9831232 233.723239,83.0247545 L233.803618,83.0386316 C234.0272,83.0802629 234.243391,82.9313154 234.284043,82.7074316 L234.437409,81.8711053 C234.478984,81.6472215 234.331161,81.431664 234.105731,81.3900327 L234.0272,81.3752305 C233.80177,81.3345243 233.587427,81.4825467 233.545851,81.7073556 L233.392485,82.5427567 Z" id="Fill-65" fill="#005082"></path>
                        </g>
                    </g>
                    <g id="Group" transform="translate(172.000000, 100.000000)"></g>
                    <g id="Page-1" transform="translate(0.000000, 163.000000)"></g>
                    <g id="Group-19" transform="translate(35.000000, 20.744000)"></g>
                </g>
            </g>
        </g>
    </g>
</svg>