<svg width="32" height="32" viewBox="0 0 32 32" fill="none" xmlns="http://www.w3.org/2000/svg">
<circle cx="16" cy="16" r="16" fill="#F3F4F5"/>
<path d="M8.49707 19V14.3857H8.54102L11.8369 19H13.0576V11.9541H11.6465V16.5439H11.6074L8.31641 11.9541H7.08594V19H8.49707ZM13.7344 11.9541V19H15.209V16.7783H16.5273C18.0117 16.7783 19.042 15.8115 19.042 14.3662C19.042 12.916 18.0459 11.9541 16.6006 11.9541H13.7344ZM15.209 13.1211H16.21C17.0547 13.1211 17.543 13.5703 17.543 14.3711C17.543 15.1768 17.0498 15.626 16.2051 15.626H15.209V13.1211ZM19.1523 16.9932C19.1963 18.3164 20.2754 19.1221 21.9697 19.1221C23.7178 19.1221 24.8262 18.2578 24.8262 16.8906C24.8262 15.8164 24.2109 15.2109 22.7998 14.9082L21.9453 14.7275C21.1348 14.542 20.793 14.2979 20.793 13.8633C20.793 13.3408 21.2812 12.9941 22.0088 12.9941C22.7461 12.9941 23.2686 13.3555 23.3174 13.9512H24.6992C24.6748 12.6768 23.6445 11.832 22.0039 11.832C20.4316 11.832 19.3086 12.6914 19.3086 13.9902C19.3086 15.0205 19.9482 15.6797 21.2471 15.958L22.165 16.1582C23.0146 16.3486 23.3516 16.6025 23.3516 17.0615C23.3516 17.5791 22.8145 17.9551 22.0283 17.9551C21.2471 17.9551 20.6416 17.5742 20.5732 16.9932H19.1523Z" fill="#636D75"/>
</svg>
