<svg width="32" height="32" viewBox="0 0 32 32" fill="none" xmlns="http://www.w3.org/2000/svg">
<circle cx="16" cy="16" r="16" fill="#F3F4F5"/>
<path d="M8.75 22L8.75 10C8.75 9.30964 9.30964 8.75 10 8.75L22 8.75C22.6904 8.75 23.25 9.30964 23.25 10L23.25 22C23.25 22.6904 22.6904 23.25 22 23.25L10 23.25C9.30964 23.25 8.75 22.6904 8.75 22Z" stroke="#636D75" stroke-width="1.5"/>
<rect x="19" y="21" width="6" height="1.5" transform="rotate(-90 19 21)" fill="#636D75"/>
<rect x="15.5" y="21" width="9" height="1.5" transform="rotate(-90 15.5 21)" fill="#636D75"/>
<rect x="12" y="21" width="5" height="1.5" transform="rotate(-90 12 21)" fill="#636D75"/>
</svg>
