<svg width="32" height="32" viewBox="0 0 32 32" fill="none" xmlns="http://www.w3.org/2000/svg">
<circle cx="16" cy="16" r="16" fill="#F3F4F5"/>
<path d="M15.7758 12.7042C15.8675 12.5184 16.1325 12.5184 16.2242 12.7042L17.0439 14.3652C17.0803 14.439 17.1507 14.4902 17.2322 14.502L19.0652 14.7683C19.2702 14.7981 19.3521 15.0501 19.2037 15.1948L17.8773 16.4877C17.8184 16.5451 17.7915 16.6278 17.8054 16.7089L18.1186 18.5345C18.1536 18.7388 17.9392 18.8945 17.7558 18.7981L16.1163 17.9362C16.0435 17.8979 15.9565 17.8979 15.8837 17.9362L14.2442 18.7981C14.0608 18.8945 13.8464 18.7388 13.8814 18.5345L14.1946 16.7089C14.2085 16.6278 14.1816 16.5451 14.1227 16.4877L12.7963 15.1948C12.6479 15.0501 12.7298 14.7981 12.9348 14.7683L14.7678 14.502C14.8493 14.4902 14.9197 14.439 14.9561 14.3652L15.7758 12.7042Z" fill="#636D75"/>
<path d="M24.0258 12.7042C24.1175 12.5184 24.3825 12.5184 24.4742 12.7042L25.2939 14.3652C25.3303 14.439 25.4007 14.4902 25.4822 14.502L27.3152 14.7683C27.5202 14.7981 27.6021 15.0501 27.4537 15.1948L26.1273 16.4877C26.0684 16.5451 26.0415 16.6278 26.0554 16.7089L26.3686 18.5345C26.4036 18.7388 26.1892 18.8945 26.0058 18.7981L24.3663 17.9362C24.2935 17.8979 24.2065 17.8979 24.1337 17.9362L22.4942 18.7981C22.3108 18.8945 22.0964 18.7388 22.1314 18.5345L22.4446 16.7089C22.4585 16.6278 22.4316 16.5451 22.3727 16.4877L21.0463 15.1948C20.8979 15.0501 20.9798 14.7981 21.1848 14.7683L23.0178 14.502C23.0993 14.4902 23.1697 14.439 23.2061 14.3652L24.0258 12.7042Z" fill="#636D75"/>
<path d="M7.52582 12.7042C7.61752 12.5184 7.88248 12.5184 7.97418 12.7042L8.79393 14.3652C8.83035 14.439 8.90074 14.4902 8.98216 14.502L10.8152 14.7683C11.0202 14.7981 11.1021 15.0501 10.9537 15.1948L9.62735 16.4877C9.56843 16.5451 9.54154 16.6278 9.55545 16.7089L9.86856 18.5345C9.90359 18.7388 9.68923 18.8945 9.50583 18.7981L7.86634 17.9362C7.7935 17.8979 7.7065 17.8979 7.63366 17.9362L5.99417 18.7981C5.81077 18.8945 5.59641 18.7388 5.63144 18.5345L5.94455 16.7089C5.95846 16.6278 5.93157 16.5451 5.87265 16.4877L4.54628 15.1948C4.3979 15.0501 4.47977 14.7981 4.68483 14.7683L6.51784 14.502C6.59926 14.4902 6.66965 14.439 6.70607 14.3652L7.52582 12.7042Z" fill="#636D75"/>
</svg>
