<svg width="32" height="32" viewBox="0 0 32 32" fill="none" xmlns="http://www.w3.org/2000/svg">
<circle cx="16" cy="16" r="16" fill="#F3F4F5"/>
<path fill-rule="evenodd" clip-rule="evenodd" d="M12.4444 9.325H13.3702H15.23H16.77H18.6298H19.5556H22.2222C22.4677 9.325 22.6667 9.53766 22.6667 9.8V23.1C22.6667 23.3623 22.4677 23.575 22.2222 23.575H9.77778C9.53232 23.575 9.33333 23.3623 9.33333 23.1V9.8C9.33333 9.53766 9.53232 9.325 9.77778 9.325H12.4444ZM16 6C14.8389 6 13.8511 6.79307 13.4851 7.9H9.77778C8.79594 7.9 8 8.75066 8 9.8V23.1C8 24.1493 8.79594 25 9.77778 25H22.2222C23.2041 25 24 24.1493 24 23.1V9.8C24 8.75066 23.2041 7.9 22.2222 7.9H18.5149C18.1489 6.79307 17.1611 6 16 6Z" fill="#636D75"/>
<path fill-rule="evenodd" clip-rule="evenodd" d="M21 13.5H11V12H21V13.5Z" fill="#636D75"/>
<path fill-rule="evenodd" clip-rule="evenodd" d="M21 17.5H11V16H21V17.5Z" fill="#636D75"/>
<path fill-rule="evenodd" clip-rule="evenodd" d="M18 21.5H11V20H18V21.5Z" fill="#636D75"/>
<path d="M16.75 7.75C16.75 8.16421 16.4142 8.5 16 8.5C15.5858 8.5 15.25 8.16421 15.25 7.75C15.25 7.33579 15.5858 7 16 7C16.4142 7 16.75 7.33579 16.75 7.75Z" fill="#F3F4F5"/>
</svg>
