<svg width="32" height="32" viewBox="0 0 32 32" fill="none" xmlns="http://www.w3.org/2000/svg">
<circle cx="16" cy="16" r="16" fill="#F3F4F5"/>
<path fill-rule="evenodd" clip-rule="evenodd" d="M25.6284 20.5812L22.8187 24.4318C21.8707 25.731 20.0506 26.0155 18.7513 25.0675L10.6092 19.1263C9.79788 18.5344 9.61989 17.3955 10.2119 16.5842C10.2848 16.4843 10.3695 16.3929 10.4557 16.3117L10.2911 16.1916C9.47984 15.5996 9.30185 14.4608 9.89382 13.6495C10.0354 13.4555 10.2079 13.2931 10.4029 13.1741C10.2079 12.6264 10.2768 12.0011 10.6457 11.4955C11.212 10.7195 12.2808 10.5264 13.0836 11.0311C13.1389 10.9183 13.2001 10.8098 13.273 10.7099C13.865 9.8986 15.0038 9.72061 15.8151 10.3126L21.4294 14.4092L21.7107 12.4433C21.7946 11.8469 22.2496 11.3591 22.8389 11.2305L24.8027 10.7986L26.145 18.3545C26.2819 19.13 26.0917 19.9462 25.6284 20.5812ZM24.71 18.6049L23.6377 12.5432L23.1543 12.65L22.5231 17.0091L14.957 11.4884C14.957 11.4884 14.5687 11.4032 14.4486 11.5678C14.3285 11.7324 14.3635 11.9561 14.5281 12.0762L18.7667 15.1691L17.9088 16.3448L12.3298 12.274C12.1652 12.1539 11.9415 12.1888 11.8214 12.3534C11.7013 12.518 11.7362 12.7418 11.9008 12.8619L17.4798 16.9327L16.6219 18.1085L11.5779 14.428C11.4133 14.3079 11.1896 14.3428 11.0694 14.5074C10.9493 14.6721 10.9843 14.8958 11.1489 15.0159L16.1929 18.6964L15.335 19.8721L11.8959 17.3627C11.7313 17.2426 11.5076 17.2776 11.3875 17.4422C11.2674 17.6068 11.3023 17.8305 11.4669 17.9506L19.6091 23.8917C20.2558 24.3636 21.1709 24.2205 21.6428 23.5739L24.4568 19.7174C24.6884 19.3999 24.7763 18.9955 24.71 18.6049Z" fill="#636D75"/>
<path fill-rule="evenodd" clip-rule="evenodd" d="M22.3289 20.7811L19.5192 24.6318C18.5711 25.931 16.751 26.2155 15.4518 25.2675L7.30959 19.3263C6.49832 18.7344 6.32032 17.5955 6.91229 16.7842C6.98522 16.6843 7.0699 16.5929 7.15617 16.5117L6.99156 16.3916C6.18028 15.7996 6.00229 14.6608 6.59426 13.8495C6.73582 13.6555 6.90836 13.4931 7.10331 13.3741C6.90834 12.8264 6.97727 12.2011 7.34618 11.6955C7.91241 10.9195 8.98121 10.7264 9.78406 11.2311C9.83935 11.1183 9.90051 11.0098 9.97344 10.9099C10.5654 10.0986 11.7043 9.92061 12.5156 10.5126L18.1298 14.6092L18.4111 12.6433C18.495 12.0468 18.95 11.5591 19.5393 11.4305L21.5031 10.9986L22.8455 18.5545C22.9823 19.33 22.7921 20.1462 22.3289 20.7811Z" fill="#F3F4F5"/>
<path fill-rule="evenodd" clip-rule="evenodd" d="M22.3289 20.7811L19.5192 24.6318C18.5711 25.931 16.751 26.2155 15.4518 25.2675L7.30959 19.3263C6.49832 18.7344 6.32032 17.5955 6.91229 16.7842C6.98522 16.6843 7.0699 16.5929 7.15617 16.5117L6.99156 16.3916C6.18028 15.7996 6.00229 14.6608 6.59426 13.8495C6.73582 13.6555 6.90836 13.4931 7.10331 13.3741C6.90834 12.8264 6.97727 12.2011 7.34618 11.6955C7.91241 10.9195 8.98121 10.7264 9.78406 11.2311C9.83935 11.1183 9.90051 11.0098 9.97344 10.9099C10.5654 10.0986 11.7043 9.92061 12.5156 10.5126L18.1298 14.6092L18.4111 12.6433C18.495 12.0468 18.95 11.5591 19.5393 11.4305L21.5031 10.9986L22.8455 18.5545C22.9823 19.33 22.7921 20.1462 22.3289 20.7811ZM21.4105 18.8049L20.3381 12.7432L19.8548 12.85L19.2235 17.2091L11.6575 11.6884C11.6575 11.6884 11.2692 11.6032 11.1491 11.7678C11.029 11.9324 11.0639 12.1561 11.2285 12.2762L15.4672 15.3691L14.6092 16.5448L9.03023 12.474C8.86562 12.3539 8.64191 12.3888 8.5218 12.5534C8.4017 12.718 8.43666 12.9417 8.60126 13.0619L14.1803 17.1327L13.3223 18.3085L8.27831 14.628C8.1137 14.5079 7.89 14.5428 7.76989 14.7074C7.64978 14.872 7.68474 15.0958 7.84935 15.2159L12.8934 18.8964L12.0355 20.0721L8.59634 17.5627C8.43174 17.4426 8.20803 17.4776 8.08792 17.6422C7.96781 17.8068 8.00277 18.0305 8.16738 18.1506L16.3096 24.0917C16.9562 24.5636 17.8714 24.4205 18.3432 23.7739L21.1572 19.9174C21.3889 19.5999 21.4767 19.1955 21.4105 18.8049Z" fill="#636D75"/>
<rect x="16.3392" y="6.31195" width="1.5" height="3" fill="#636D75"/>
<rect x="20.8494" y="6.41901" width="1.5" height="3" transform="rotate(35 20.8494 6.41901)" fill="#636D75"/>
<rect x="12.0994" y="7.2793" width="1.5" height="3" transform="rotate(-35 12.0994 7.2793)" fill="#636D75"/>
</svg>
