<svg width="32" height="32" viewBox="0 0 32 32" fill="none" xmlns="http://www.w3.org/2000/svg">
<circle cx="16" cy="16" r="16" fill="#F3F4F5"/>
<path fill-rule="evenodd" clip-rule="evenodd" d="M9 9.25V21.6893L10.4268 20.2626C10.755 19.9344 11.2001 19.75 11.6642 19.75H22.75C22.8881 19.75 23 19.6381 23 19.5V9.5C23 9.36193 22.8881 9.25 22.75 9.25H9ZM7.5 9C7.5 8.30965 8.05964 7.75 8.75 7.75H22.75C23.7165 7.75 24.5 8.5335 24.5 9.5V19.5C24.5 20.4665 23.7165 21.25 22.75 21.25H11.6642C11.5979 21.25 11.5343 21.2763 11.4874 21.3232L7.5 25.3107V9Z" fill="#636D75"/>
<rect x="11" y="13.75" width="1.5" height="1.5" fill="#636D75"/>
<rect x="15.25" y="13.75" width="1.5" height="1.5" fill="#636D75"/>
<rect x="19.5" y="13.75" width="1.5" height="1.5" fill="#636D75"/>
</svg>
