<svg width="32" height="32" viewBox="0 0 32 32" fill="none" xmlns="http://www.w3.org/2000/svg">
<circle cx="16" cy="16" r="16" fill="#F3F4F5"/>
<mask id="mask0" mask-type="alpha" maskUnits="userSpaceOnUse" x="7" y="7" width="18" height="17">
<path fill-rule="evenodd" clip-rule="evenodd" d="M22.6998 12.775H17.4941L18.2778 9.00475L18.3026 8.74075C18.3026 8.4025 18.1623 8.089 17.9396 7.86625L17.0651 7L11.6366 12.4368C11.3313 12.7337 11.1498 13.1462 11.1498 13.5999H7.84991V21.9324H11.1499V21.8678C11.1595 22.7672 11.8983 23.5 12.7998 23.5H20.2248C20.9096 23.5 21.4953 23.0875 21.7428 22.4935L24.2343 16.6773C24.3086 16.4875 24.3498 16.2895 24.3498 16.075V14.425C24.3498 13.5175 23.6073 12.775 22.6998 12.775ZM11.1499 21.8678V13.5999H11.1498C11.1498 13.6 11.1498 13.6 11.1498 13.6V21.85C11.1498 21.8559 11.1499 21.8619 11.1499 21.8678ZM22.6998 16.075L20.2248 21.85H12.7998V13.6L16.3803 10.0195L15.4645 14.425H22.6998V16.075Z" fill="white"/>
</mask>
<g mask="url(#mask0)">
<rect x="5.10016" y="4.5" width="22" height="22" fill="#636D75"/>
</g>
</svg>
