<svg width="90" height="90" viewBox="0 0 90 90" fill="none" xmlns="http://www.w3.org/2000/svg">
<circle cx="45" cy="45" r="45" fill="#F3F4F5"/>
<path fill-rule="evenodd" clip-rule="evenodd" d="M41 36.4284C41 34.5456 42.7288 32.9165 45 32.9165C47.2712 32.9165 49 34.5456 49 36.4284V41.6665H41V36.4284ZM38.3333 41.6665V36.4284C38.3333 33.0514 41.3801 30.4165 45 30.4165C48.6198 30.4165 51.6667 33.0514 51.6667 36.4284V41.6665H53.3333C54.2538 41.6665 55 42.4127 55 43.3332V56.6665C55 57.587 54.2538 58.3332 53.3333 58.3332H36.6667C35.7462 58.3332 35 57.587 35 56.6665V43.3332C35 42.4127 35.7462 41.6665 36.6667 41.6665H38.3333Z" fill="#2B2D2F"/>
</svg>
